HIERARCHY
ROOT root
{
	OFFSET	0	13.1	24.9
	CHANNELS 6  Xposition Yposition Zposition Xrotation Yrotation Zrotation
	JOINT spine_1
	{
		OFFSET	0	9.99999	0
		CHANNELS 3  Xrotation Yrotation Zrotation
		JOINT spine_2
		{
			OFFSET	0	112	-10
			CHANNELS 3  Xrotation Yrotation Zrotation
			JOINT spine_3
			{
				OFFSET	0	206.5	19.3
				CHANNELS 3  Xrotation Yrotation Zrotation
				JOINT spine_4
				{
					OFFSET	0	110.4	14.6
					CHANNELS 3  Xrotation Yrotation Zrotation
					JOINT neck_1
					{
						OFFSET	0	71.8	-50.3
						CHANNELS 3  Xrotation Yrotation Zrotation
						JOINT neck_2
						{
							OFFSET	0	86.2	-25.8
							CHANNELS 3  Xrotation Yrotation Zrotation
							JOINT head_ee
							{
								OFFSET	0	179.8	-8.7
								CHANNELS 3  Xrotation Yrotation Zrotation
								End Site
								{
									OFFSET	1	0	0
								}
							}
						}
					}
					JOINT left_clavicle
					{
						OFFSET	-43.2	22.4	-70.8
						CHANNELS 3  Xrotation Yrotation Zrotation
						JOINT left_shoulder
						{
							OFFSET	-93.9	-5.79999	48.7
							CHANNELS 3  Xrotation Yrotation Zrotation
							JOINT left_elbow
							{
								OFFSET	-291.4	-30.8	15.2
								CHANNELS 3  Xrotation Yrotation Zrotation
								JOINT left_lowarm_twist
								{
									OFFSET	-110.7	-3.89999	13.6
									CHANNELS 3  Xrotation Yrotation Zrotation
									JOINT left_hand
									{
										OFFSET	-110.7	-3.89999	13.6
										CHANNELS 3  Xrotation Yrotation Zrotation
										JOINT left_ee
										{
											OFFSET	-80.8	-5.10001	12.1
											CHANNELS 3  Xrotation Yrotation Zrotation
											End Site
											{
												OFFSET	1	0	0
											}
										}
									}
								}
							}
						}
					}
					JOINT right_clavicle
					{
						OFFSET	43.2	22.4	-70.8
						CHANNELS 3  Xrotation Yrotation Zrotation
						JOINT right_shoulder
						{
							OFFSET	93.9	-5.79999	48.7
							CHANNELS 3  Xrotation Yrotation Zrotation
							JOINT right_elbow
							{
								OFFSET	291.4	-30.8	15.2
								CHANNELS 3  Xrotation Yrotation Zrotation
								JOINT right_lowarm_twist
								{
									OFFSET	110.7	-3.89999	13.6
									CHANNELS 3  Xrotation Yrotation Zrotation
									JOINT right_hand
									{
										OFFSET	110.7	-3.89999	13.6
										CHANNELS 3  Xrotation Yrotation Zrotation
										JOINT right_ee
										{
											OFFSET	80.8	-5.10001	12.1
											CHANNELS 3  Xrotation Yrotation Zrotation
											End Site
											{
												OFFSET	1	0	0
											}
										}
									}
								}
							}
						}
					}
				}
			}
		}
	}
	JOINT left_hip
	{
		OFFSET	-82.8	-127.5	0.300001
		CHANNELS 3  Xrotation Yrotation Zrotation
		JOINT left_knee
		{
			OFFSET	-28.2	-396.7	2.2
			CHANNELS 3  Xrotation Yrotation Zrotation
			JOINT left_ankle
			{
				OFFSET	-11.7	-411.3	35.4
				CHANNELS 3  Xrotation Yrotation Zrotation
				JOINT left_toes
				{
					OFFSET	0	-60	-88.6
					CHANNELS 3  Xrotation Yrotation Zrotation
					JOINT left_foot_ee
					{
						OFFSET	-22.5	-16.5	-42.2
						CHANNELS 3  Xrotation Yrotation Zrotation
						End Site
						{
							OFFSET	1	0	0
						}
					}
				}
			}
		}
	}
	JOINT right_hip
	{
		OFFSET	82.8	-127.5	0.300001
		CHANNELS 3  Xrotation Yrotation Zrotation
		JOINT right_knee
		{
			OFFSET	28.2	-396.7	2.2
			CHANNELS 3  Xrotation Yrotation Zrotation
			JOINT right_ankle
			{
				OFFSET	11.7	-411.3	35.4
				CHANNELS 3  Xrotation Yrotation Zrotation
				JOINT right_toes
				{
					OFFSET	0	-60	-88.6
					CHANNELS 3  Xrotation Yrotation Zrotation
					JOINT right_foot_ee
					{
						OFFSET	22.5	-16.5	-42.2
						CHANNELS 3  Xrotation Yrotation Zrotation
						End Site
						{
							OFFSET	1	0	0
						}
					}
				}
			}
		}
	}
}
MOTION
Frames: 5
Frame Time: 0.02
1372.05 701.618 -1475.22 -22.5582412409 7.73118606086 3.83556410569 8.65641 0.127586 0.571007 8.65659 0.090993 0.577968 8.65717 0.0557916 0.582421 8.65672 0.147072 0.566301 -14.566 8.56693 -3.30822 -14.8195 18.3468 -0.300576 -0.0 0.0 -0.0 4.3575 13.6853 8.76578 -26.1177 -38.5247 44.9497 1.62798 -38.8815 0.574638 -67.9688 -6.28711 5.27941 -10.0169 31.2025 -46.5834 -0.0 0.0 -0.0 11.6604 4.13393 -23.3804 -67.9597 48.6043 -47.2963 0.188999 5.34883 -0.00882834 -26.1183 1.60984 -2.89637 9.61343 23.0961 -63.7194 0.0 0.0 0.0 0.695283 46.6204 9.38839 -9.60402 0.274721 1.44659 32.0672 -14.9374 -4.39054 1.51263 -0.0 -0.0 -0.0 0.0 -0.0 53.491 1.35501 -7.29755 -4.68747 -0.164417 -0.700398 -6.42989 20.7081 -1.09365 -9.62512 0.0 0.0 0.0 0.0 0.0 
1370.25580157 702.563 -1487.26207262 -22.3182067852 7.60590987061 4.20637510707 8.30325 0.192806 0.54999 8.3034 0.157419 0.561143 8.30465 0.119611 0.570399 8.30425 0.208192 0.544352 -15.8405 9.82898 -4.59286 -16.249 21.4782 -0.821122 -0.0 0.0 -0.0 3.98056 10.5371 8.07546 -23.2226 -34.7489 48.5004 1.5788 -38.0259 0.544053 -62.1156 -5.54697 5.16216 -8.65724 27.143 -41.3304 -0.0 0.0 -0.0 11.2359 3.53494 -22.4315 -63.5621 50.2443 -46.3337 0.196899 5.57103 -0.00958009 -25.9107 1.59202 -2.87659 9.70054 23.6276 -63.9988 0.0 0.0 0.0 -0.709453 44.6713 9.65281 -8.06744 0.247135 1.21242 31.8874 -12.9738 -4.31783 -0.168073 0.0 0.0 -0.0 0.0 -0.0 52.8963 1.81929 -7.73092 -5.41377 -0.184739 -0.810008 -5.88978 24.5515 -1.04232 -10.4752 0.0 0.0 0.0 0.0 0.0 
1363.40479654 702.187 -1517.86263291 -22.6351170907 7.87512196813 4.05631395997 8.59967 0.225455 0.634469 8.59987 0.184626 0.647529 8.60154 0.144404 0.657668 8.60102 0.246456 0.62661 -13.8246 9.35666 -3.26069 -14.0946 19.8315 -0.117001 -0.0 0.0 -0.0 3.42154 10.7913 7.12043 -25.3736 -31.726 50.4861 1.65962 -39.4214 0.594618 -57.7151 -5.00004 5.02438 -9.76177 28.8182 -48.2916 -0.0 0.0 -0.0 12.0883 2.14104 -24.206 -65.6787 48.4018 -45.0948 0.181325 5.13284 -0.00812742 -23.9837 1.43021 -2.69005 9.63029 23.734 -62.9375 0.0 0.0 0.0 0.0887015 46.0662 9.18183 -10.4931 0.287811 1.58239 26.8844 -4.81973 -3.61556 6.35376 -0.0 -0.0 -0.0 0.0 -0.0 52.9092 1.57175 -8.01436 -8.89023 -0.262688 -1.33772 -1.66073 24.4604 -0.290697 -10.5362 0.0 0.0 0.0 0.0 0.0 
1363.88615807 702.187 -1517.95740012 -22.6020660864 7.27876582551 3.80566077311 8.59967 0.225455 0.634469 8.59987 0.184626 0.647529 8.60154 0.144404 0.657668 8.60102 0.246456 0.62661 -13.8246 9.35666 -3.26069 -14.0946 19.8315 -0.117001 -0.0 0.0 -0.0 3.42154 10.7913 7.12043 -25.3736 -31.726 50.4861 1.65962 -39.4214 0.594618 -57.7151 -5.00004 5.02438 -9.76177 28.8182 -48.2916 -0.0 0.0 -0.0 12.0883 2.14104 -24.206 -65.6787 48.4018 -45.0948 0.181325 5.13284 -0.00812742 -23.9837 1.43021 -2.69005 9.63029 23.734 -62.9375 0.0 0.0 0.0 0.0887015 46.0662 9.18183 -10.4931 0.287811 1.58239 26.8844 -4.81973 -3.61556 6.35376 -0.0 -0.0 -0.0 0.0 -0.0 52.9092 1.57175 -8.01436 -8.89023 -0.262688 -1.33772 -1.66073 24.4604 -0.290697 -10.5362 0.0 0.0 0.0 0.0 0.0 
1352.27781297 697.907 -1533.51962851 -22.4143827715 6.65143995065 3.13868844139 8.56718 0.316751 0.622339 8.56735 0.276509 0.641233 8.57007 0.236145 0.657169 8.56963 0.336967 0.61163 -12.6173 8.83162 -3.63329 -12.8029 19.0722 -0.85812 -0.0 0.0 -0.0 3.47207 8.51965 7.11973 -24.9371 -27.4358 53.4035 1.50743 -36.7477 0.500717 -57.1984 -4.93654 5.00545 -8.96355 21.395 -52.1303 -0.0 0.0 -0.0 11.511 5.81974 -23.1151 -61.7824 51.9347 -48.1767 0.22385 6.32776 -0.0123736 -25.1983 1.53147 -2.80826 9.36559 23.4844 -60.1098 0.0 0.0 0.0 0.93891 44.8913 8.90446 -14.288 0.319941 2.16367 29.4756 0.742351 -3.84904 6.32144 -0.0 -0.0 -0.0 0.0 -0.0 54.6813 1.82843 -7.50456 -15.7165 -0.322053 -2.38282 2.89321 22.7272 0.490394 -10.1002 0.0 0.0 0.0 0.0 0.0 
